HIERARCHY
ROOT Hips
{
	OFFSET 0.000000 0.000000 0.000000
	CHANNELS 6 Xposition Yposition Zposition Xrotation Yrotation Zrotation
	JOINT LeftUpLeg_virtual
	{
		OFFSET 0.000000 0.000000 0.000000
		CHANNELS 3 Xrotation Yrotation Zrotation
		JOINT LeftUpLeg
		{
			OFFSET 10.205400 -3.823500 0.155100
			CHANNELS 3 Xrotation Yrotation Zrotation
			JOINT LeftLeg
			{
				OFFSET 0.708757 -12.982077 0.567790
				CHANNELS 3 Xrotation Yrotation Zrotation
				JOINT LeftFoot
				{
					OFFSET -0.708756 -10.717838 -2.184338
					CHANNELS 3 Xrotation Yrotation Zrotation
					JOINT LeftToeBase
					{
						OFFSET 0.108149 -7.191104 7.560241
						CHANNELS 3 Xrotation Yrotation Zrotation
						JOINT LeftToe_End
						{
							OFFSET 0.070230 0.081724 4.490308
							CHANNELS 3 Xrotation Yrotation Zrotation
							End Site
							{
								OFFSET 0 0 0
							}
						}
					}
				}
			}
		}
	}
	JOINT RightUpLeg_virtual
	{
		OFFSET 0.000000 0.000000 0.000000
		CHANNELS 3 Xrotation Yrotation Zrotation
		JOINT RightUpLeg
		{
			OFFSET -10.205400 -3.823500 0.005500
			CHANNELS 3 Xrotation Yrotation Zrotation
			JOINT RightLeg
			{
				OFFSET -0.708756 -12.982134 0.610632
				CHANNELS 3 Xrotation Yrotation Zrotation
				JOINT RightFoot
				{
					OFFSET 0.708754 -10.717769 -1.945823
					CHANNELS 3 Xrotation Yrotation Zrotation
					JOINT RightToeBase
					{
						OFFSET -0.108140 -7.191069 7.372968
						CHANNELS 3 Xrotation Yrotation Zrotation
						JOINT RightToe_End
						{
							OFFSET -0.070227 0.081735 4.479403
							CHANNELS 3 Xrotation Yrotation Zrotation
							End Site
							{
								OFFSET 0 0 0
							}
						}
					}
				}
			}
		}
	}
	JOINT Spine_virtual
	{
		OFFSET 0.000000 0.000000 0.000000
		CHANNELS 3 Xrotation Yrotation Zrotation
		JOINT Spine
		{
			OFFSET 0.000000 6.876099 0.125700
			CHANNELS 3 Xrotation Yrotation Zrotation
			JOINT Spine1
			{
				OFFSET 0.000000 5.730043 0.104720
				CHANNELS 3 Xrotation Yrotation Zrotation
				JOINT Spine1_split
				{
					OFFSET 0.000000 5.730043 0.104720
					CHANNELS 3 Xrotation Yrotation Zrotation
					JOINT Spine2
					{
						OFFSET 0.000000 5.730043 0.104720
						CHANNELS 3 Xrotation Yrotation Zrotation
						JOINT Neck_virtual
						{
							OFFSET 0.000000 0.000000 0.000000
							CHANNELS 3 Xrotation Yrotation Zrotation
							JOINT Neck
							{
								OFFSET 0.000000 10.314075 0.188496
								CHANNELS 3 Xrotation Yrotation Zrotation
								JOINT Head
								{
									OFFSET 0.000000 7.643700 -2.377400
									CHANNELS 3 Xrotation Yrotation Zrotation
									JOINT HeadTop_End
									{
										OFFSET 0.000000 43.788605 -13.619600
										CHANNELS 3 Xrotation Yrotation Zrotation
										End Site
										{
											OFFSET 0 0 0
										}
									}
								}
							}
						}
						JOINT LeftShoulder_virtual
						{
							OFFSET 0.000000 0.000000 0.000000
							CHANNELS 3 Xrotation Yrotation Zrotation
							JOINT LeftShoulder
							{
								OFFSET 2.196100 4.412489 0.087492
								CHANNELS 3 Xrotation Yrotation Zrotation
								JOINT LeftShoulder_split
								{
									OFFSET 2.196100 4.412489 0.087492
									CHANNELS 3 Xrotation Yrotation Zrotation
									JOINT LeftArm
									{
										OFFSET 8.771219 -2.981674 -0.026999
										CHANNELS 3 Xrotation Yrotation Zrotation
										JOINT LeftForeArm
										{
											OFFSET 8.512804 0.000000 -0.000000
											CHANNELS 3 Xrotation Yrotation Zrotation
											JOINT LeftHand
											{
												OFFSET 18.484802 0.000000 -0.000000
												CHANNELS 3 Xrotation Yrotation Zrotation
												End Site
												{
													OFFSET 0 0 0
												}
											}
										}
									}
								}
							}
						}
						JOINT RightShoulder_virtual
						{
							OFFSET 0.000000 0.000000 0.000000
							CHANNELS 3 Xrotation Yrotation Zrotation
							JOINT RightShoulder
							{
								OFFSET -2.196100 4.412496 0.070690
								CHANNELS 3 Xrotation Yrotation Zrotation
								JOINT RightShoulder_split
								{
									OFFSET -2.196100 4.412496 0.070690
									CHANNELS 3 Xrotation Yrotation Zrotation
									JOINT RightArm
									{
										OFFSET -8.771282 -2.981682 -0.094208
										CHANNELS 3 Xrotation Yrotation Zrotation
										JOINT RightForeArm
										{
											OFFSET -8.494598 0.000000 0.000000
											CHANNELS 3 Xrotation Yrotation Zrotation
											JOINT RightHand
											{
												OFFSET -18.483803 0.000000 0.000001
												CHANNELS 3 Xrotation Yrotation Zrotation
												End Site
												{
													OFFSET 0 0 0
												}
											}
										}
									}
								}
							}
						}
					}
				}
			}
		}
	}
}
MOTION
Frames: 6
Frame Time: 0.03333333
7.449704 27.418550 -7.294441 0.000000 0.000000 0.000000 51.797518 -3.129676 10.659651 -88.319455 2.922589 19.621470 51.964247 -8.108328 -0.320167 -6.179795 8.851390 -16.571137 7.514216 -0.546273 -0.258639 0.000000 0.000000 0.000000 52.582754 -4.294734 10.952335 -41.050352 2.374471 -17.861626 56.865631 15.853979 -1.411501 -22.455729 -21.042189 13.081138 -19.597527 11.783368 -4.528462 0.000000 0.000000 0.000000 54.319661 1.116692 8.714977 12.759310 0.974998 -0.421518 12.328627 -1.083204 -3.564993 0.253290 0.110143 -0.021669 0.000000 0.000000 0.000000 18.702043 0.320412 -3.880951 -27.683161 -5.002018 -2.647968 -75.711144 4.076982 30.493321 0.000000 0.000000 0.000000 17.419916 -0.227188 -4.234249 6.641051 -1.383831 5.409219 -0.382649 -3.924721 -0.826135 -27.786862 -64.589861 -13.792512 -15.722593 -15.085642 -15.371718 0.000000 0.000000 0.000000 20.043134 0.502477 -3.135514 9.301657 32.273088 -8.084437 -6.474712 -1.516441 6.679742 -43.394808 25.892159 12.724216 -14.462475 33.693856 15.084877 0.000000 0.000000 0.000000 
7.142538 28.104099 -7.050934 0.000000 0.000000 0.000000 49.760571 -3.300467 10.405631 -82.355935 3.587117 18.160604 48.248115 -7.959814 -0.600819 -7.811552 9.740683 -15.769300 8.710329 -0.537358 -0.434453 0.000000 0.000000 0.000000 50.240051 -4.283518 10.489192 -45.206365 2.757339 -17.357917 60.629124 15.028530 -1.070502 -24.642428 -18.829737 8.901601 -17.468462 10.597862 -3.957955 0.000000 0.000000 0.000000 51.918211 1.186184 8.178250 12.685778 0.868440 -0.155656 12.021454 -1.039581 -3.285404 0.247614 0.157284 -0.016332 0.000000 0.000000 0.000000 18.717549 0.387104 -3.605820 -27.845669 -5.257263 -2.484891 -73.440059 4.472330 29.341912 0.000000 0.000000 0.000000 17.253184 -0.090925 -4.049166 6.501913 -1.623002 3.624931 -0.337179 -4.106048 -0.513724 -27.271858 -62.418189 -17.781086 -15.232968 -15.151619 -14.665377 0.000000 0.000000 0.000000 20.035644 0.606018 -3.005195 8.544108 31.784388 -7.101902 -6.719669 -1.335873 6.677080 -41.897104 23.272044 16.856495 -13.799047 32.657511 14.006099 0.000000 0.000000 0.000000 
6.868928 28.744545 -6.785772 0.000000 0.000000 0.000000 47.621349 -3.504986 9.942581 -76.220608 3.917743 16.832429 44.749958 -7.877804 -0.919591 -9.411190 10.737697 -15.408640 9.077543 -0.503160 -0.442275 0.000000 0.000000 0.000000 47.967524 -4.514861 9.988558 -48.671037 2.609463 -17.111868 60.955019 14.263122 -0.479778 -24.534258 -17.106279 7.044222 -14.893246 9.524839 -3.904941 0.000000 0.000000 0.000000 49.351750 1.223762 7.525015 12.530561 0.778384 0.199288 11.713260 -0.977804 -2.997881 0.252213 0.187691 -0.026517 0.000000 0.000000 0.000000 18.626232 0.469348 -3.348937 -27.836182 -5.530049 -2.360282 -70.637789 4.761979 28.086699 0.000000 0.000000 0.000000 17.021706 0.042083 -3.878336 6.343646 -1.868113 1.881905 -0.306433 -4.216274 -0.183913 -26.569209 -60.416206 -21.852396 -14.494283 -14.609891 -13.715630 0.000000 0.000000 0.000000 19.957965 0.713234 -2.873732 7.823512 31.183843 -6.126030 -6.979445 -0.927028 6.655727 -39.978504 20.557695 20.465245 -13.320532 31.570323 13.129877 0.000000 0.000000 0.000000 
6.620347 29.337605 -6.506577 0.000000 0.000000 0.000000 45.467640 -3.629667 9.252971 -69.992486 4.170667 15.842743 41.231957 -7.686600 -1.319285 -11.188862 11.875371 -14.905044 8.913814 -0.474963 -0.262973 0.000000 0.000000 0.000000 45.781996 -4.681822 9.250108 -50.871543 2.025002 -16.858128 57.641524 13.475788 0.223382 -23.837377 -15.836871 6.663673 -10.527701 8.799876 -4.684011 0.000000 0.000000 0.000000 46.643164 1.306837 6.756484 12.266909 0.677542 0.634424 11.387285 -0.918691 -2.682284 0.260367 0.220393 -0.038777 0.000000 0.000000 0.000000 18.409566 0.540260 -3.089358 -27.601781 -5.800984 -2.308012 -67.374311 4.833198 26.737575 0.000000 0.000000 0.000000 16.708666 0.149647 -3.686338 6.189643 -2.174796 0.282390 -0.254892 -4.354947 0.114823 -25.599462 -58.588236 -25.702658 -13.679772 -13.702434 -12.668984 0.000000 0.000000 0.000000 19.781285 0.804046 -2.705237 7.147322 30.515776 -5.127069 -7.351677 -0.432332 6.679964 -37.670426 17.931634 23.497277 -12.998110 30.429053 12.412203 0.000000 0.000000 0.000000 
6.370720 29.898054 -6.245481 0.000000 0.000000 0.000000 43.312815 -3.764282 8.421240 -63.874625 4.469166 15.224767 37.742929 -7.425584 -1.742639 -12.889621 13.095305 -14.303119 8.966949 -0.471908 -0.189901 0.000000 0.000000 0.000000 43.729736 -4.510131 8.239454 -51.396166 1.075772 -16.514617 51.853939 12.429743 0.881335 -23.483381 -14.927488 6.817360 -4.665616 8.503840 -6.233895 0.000000 0.000000 0.000000 43.915784 1.535800 5.858726 11.851023 0.521907 1.109424 11.025608 -0.901370 -2.337557 0.262296 0.249613 -0.040153 0.000000 0.000000 0.000000 18.084650 0.581221 -2.824377 -27.118860 -6.002710 -2.343166 -63.752446 4.548241 25.279188 0.000000 0.000000 0.000000 16.313410 0.211827 -3.463020 6.064318 -2.621432 -1.081061 -0.372892 -4.443950 0.242633 -24.315871 -56.875620 -29.070784 -12.959735 -12.809917 -11.677431 0.000000 0.000000 0.000000 19.496420 0.854677 -2.496102 6.514813 29.780475 -4.090320 -7.754072 0.003431 6.627358 -35.139599 15.498739 26.091114 -12.811645 29.318905 11.810030 0.000000 0.000000 0.000000 
6.082957 30.437145 -6.025614 0.000000 0.000000 0.000000 41.112083 -3.835798 7.528944 -58.012239 4.894677 14.894185 34.407850 -7.249465 -2.120825 -14.127484 14.285948 -13.932629 9.180900 -0.501475 -0.149388 0.000000 0.000000 0.000000 41.616657 -4.006271 7.112326 -50.681414 0.122688 -16.054582 44.957927 11.271987 1.219633 -22.833114 -14.382481 7.935788 0.840363 8.552054 -8.281294 0.000000 0.000000 0.000000 41.257327 2.003473 4.882532 11.258967 0.292983 1.559038 10.629501 -0.949192 -1.983965 0.242619 0.279447 -0.032177 0.000000 0.000000 0.000000 17.692690 0.587257 -2.568359 -26.370083 -6.089606 -2.478462 -59.985358 4.008805 23.772429 0.000000 0.000000 0.000000 15.858770 0.219576 -3.212685 5.975266 -3.214482 -2.135557 -0.527395 -4.528755 0.195881 -22.847900 -55.161209 -31.867538 -12.404546 -12.188836 -10.810101 0.000000 0.000000 0.000000 19.108311 0.848825 -2.261105 5.929316 28.964305 -3.091292 -8.128386 0.434246 6.577816 -32.564091 13.348720 28.355804 -12.727820 28.398217 11.291755 0.000000 0.000000 0.000000 
